<mxfile host="app.diagrams.net" modified="2021-05-30T20:16:03.323Z" agent="5.0 (Windows NT 10.0; Win64; x64) AppleWebKit/537.36 (KHTML, like Gecko) Chrome/91.0.4472.77 Safari/537.36" etag="znT8dD2EnYu4WXTpmjSL" version="14.7.3" type="github">
  <diagram name="Page-1" id="e7e014a7-5840-1c2e-5031-d8a46d1fe8dd">
    <mxGraphModel dx="852" dy="408" grid="1" gridSize="10" guides="1" tooltips="1" connect="1" arrows="1" fold="1" page="1" pageScale="1" pageWidth="1169" pageHeight="826" background="none" math="0" shadow="0">
      <root>
        <mxCell id="0" />
        <mxCell id="1" parent="0" />
        <mxCell id="20" value="" style="endArrow=open;strokeColor=#FF0000;endFill=1;rounded=0" parent="1" edge="1">
          <mxGeometry relative="1" as="geometry">
            <mxPoint x="334.5" y="478" as="sourcePoint" />
            <mxPoint x="464.5" y="478" as="targetPoint" />
          </mxGeometry>
        </mxCell>
        <mxCell id="8jK6GF2u9oT3SoxuqHqK-53" style="edgeStyle=orthogonalEdgeStyle;rounded=0;orthogonalLoop=1;jettySize=auto;html=1;entryX=0;entryY=0.8;entryDx=0;entryDy=0;entryPerimeter=0;fontSize=16;" edge="1" parent="1" source="8jK6GF2u9oT3SoxuqHqK-41" target="8jK6GF2u9oT3SoxuqHqK-51">
          <mxGeometry relative="1" as="geometry" />
        </mxCell>
        <mxCell id="8jK6GF2u9oT3SoxuqHqK-54" style="edgeStyle=orthogonalEdgeStyle;rounded=0;orthogonalLoop=1;jettySize=auto;html=1;entryX=0;entryY=0.25;entryDx=0;entryDy=0;entryPerimeter=0;fontSize=16;" edge="1" parent="1" source="8jK6GF2u9oT3SoxuqHqK-41" target="8jK6GF2u9oT3SoxuqHqK-47">
          <mxGeometry relative="1" as="geometry" />
        </mxCell>
        <mxCell id="8jK6GF2u9oT3SoxuqHqK-41" value="User" style="swimlane;fontSize=16;" vertex="1" parent="1">
          <mxGeometry x="100" y="180" width="160" height="60" as="geometry" />
        </mxCell>
        <mxCell id="8jK6GF2u9oT3SoxuqHqK-43" value="PID" style="swimlane;fontSize=16;" vertex="1" parent="1">
          <mxGeometry x="370" y="40" width="220" height="130" as="geometry" />
        </mxCell>
        <mxCell id="8jK6GF2u9oT3SoxuqHqK-45" value="1) kc(2.35), Ti(0), Td(0)&amp;nbsp; &amp;nbsp; &amp;nbsp; &amp;nbsp; &amp;nbsp;" style="text;html=1;align=center;verticalAlign=middle;resizable=0;points=[];autosize=1;strokeColor=none;fontSize=16;" vertex="1" parent="8jK6GF2u9oT3SoxuqHqK-43">
          <mxGeometry y="30" width="220" height="20" as="geometry" />
        </mxCell>
        <mxCell id="8jK6GF2u9oT3SoxuqHqK-47" value="&amp;nbsp;2) kc(2.35), Ti(.5), Td(2.76)&amp;nbsp; &amp;nbsp;" style="text;html=1;align=center;verticalAlign=middle;resizable=0;points=[];autosize=1;strokeColor=none;fontSize=16;" vertex="1" parent="8jK6GF2u9oT3SoxuqHqK-43">
          <mxGeometry y="55" width="220" height="20" as="geometry" />
        </mxCell>
        <mxCell id="8jK6GF2u9oT3SoxuqHqK-48" value="3) kc(.62), Ti(.19), Td(0)&amp;nbsp; &amp;nbsp; &amp;nbsp; &amp;nbsp;" style="text;html=1;align=center;verticalAlign=middle;resizable=0;points=[];autosize=1;strokeColor=none;fontSize=16;" vertex="1" parent="8jK6GF2u9oT3SoxuqHqK-43">
          <mxGeometry y="80" width="220" height="20" as="geometry" />
        </mxCell>
        <mxCell id="8jK6GF2u9oT3SoxuqHqK-49" value="IMC" style="swimlane;fontSize=16;" vertex="1" parent="1">
          <mxGeometry x="370" y="220" width="220" height="130" as="geometry" />
        </mxCell>
        <mxCell id="8jK6GF2u9oT3SoxuqHqK-51" value="2) A = 3&amp;nbsp; &amp;nbsp; &amp;nbsp; &amp;nbsp; &amp;nbsp; &amp;nbsp; &amp;nbsp; &amp;nbsp; &amp;nbsp; &amp;nbsp; &amp;nbsp; &amp;nbsp; &amp;nbsp; &amp;nbsp; &amp;nbsp;" style="text;html=1;align=center;verticalAlign=middle;resizable=0;points=[];autosize=1;strokeColor=none;fontSize=16;" vertex="1" parent="8jK6GF2u9oT3SoxuqHqK-49">
          <mxGeometry y="55" width="200" height="20" as="geometry" />
        </mxCell>
        <mxCell id="8jK6GF2u9oT3SoxuqHqK-50" value="1) A = 1.5&amp;nbsp; &amp;nbsp; &amp;nbsp; &amp;nbsp; &amp;nbsp; &amp;nbsp; &amp;nbsp; &amp;nbsp; &amp;nbsp; &amp;nbsp; &amp;nbsp; &amp;nbsp; &amp;nbsp; &amp;nbsp; &amp;nbsp; &amp;nbsp;" style="text;html=1;align=center;verticalAlign=middle;resizable=0;points=[];autosize=1;strokeColor=none;fontSize=16;" vertex="1" parent="1">
          <mxGeometry x="370" y="250" width="220" height="20" as="geometry" />
        </mxCell>
        <mxCell id="8jK6GF2u9oT3SoxuqHqK-52" value="3) A = 6&amp;nbsp; &amp;nbsp; &amp;nbsp; &amp;nbsp; &amp;nbsp; &amp;nbsp; &amp;nbsp; &amp;nbsp; &amp;nbsp; &amp;nbsp; &amp;nbsp; &amp;nbsp; &amp;nbsp; &amp;nbsp; &amp;nbsp; &amp;nbsp; &amp;nbsp;&amp;nbsp;" style="text;html=1;align=center;verticalAlign=middle;resizable=0;points=[];autosize=1;strokeColor=none;fontSize=16;" vertex="1" parent="1">
          <mxGeometry x="370" y="300" width="220" height="20" as="geometry" />
        </mxCell>
      </root>
    </mxGraphModel>
  </diagram>
</mxfile>
